<svg width="49" height="49" viewBox="0 0 49 49" fill="none" xmlns="http://www.w3.org/2000/svg">
<path fill-rule="evenodd" clip-rule="evenodd" d="M7.60205 0.432068H41.3321C45.2564 0.432068 48.4673 3.64263 48.4673 7.56661V41.2975C48.4673 45.2215 45.2564 48.4321 41.3321 48.4321H7.60205C3.67776 48.4321 0.467285 45.2215 0.467285 41.2975V7.56661C0.467285 3.64263 3.67776 0.432068 7.60205 0.432068Z" fill="#25D366"/>
<path fill-rule="evenodd" clip-rule="evenodd" d="M14.9102 36.2232L17.0683 35.8379L18.3779 35.6061C20.2279 36.6085 22.2322 37.1484 24.4662 37.1484C31.4804 37.1484 37.183 31.4445 37.183 24.4317C37.183 17.4185 31.4804 11.7153 24.4662 11.7153C17.454 11.7153 11.7506 17.4185 11.7506 24.4317C11.7506 26.9751 12.5215 29.2871 13.754 31.2906L13.6006 32.4468L13.292 34.7588L13.0606 36.5317L14.9102 36.2232ZM24.4662 9.24863C32.868 9.24863 39.6501 16.0308 39.6501 24.4317C39.6501 32.8321 32.868 39.6143 24.4662 39.6143C22.1546 39.6143 19.9973 39.1523 18.0706 38.2267L9.97773 39.6143L11.0568 31.5991L10.9801 31.4445C9.90101 29.3638 9.28394 26.9751 9.28394 24.4317C9.28394 16.0308 16.066 9.24863 24.4662 9.24863ZM19.0721 17.4956C19.9194 16.9565 20.4593 17.3417 20.7679 18.1894L21.5384 20.1929C21.5384 20.1929 22.0779 21.272 20.6899 22.3511C20.4593 22.5049 20.4593 22.5049 20.5365 22.8902C20.845 23.8146 22.0779 26.5898 26.0089 28.7472C26.3941 28.9786 26.4708 28.9786 26.8561 28.67C27.1646 28.3615 27.5503 27.9762 27.8576 27.6677C28.5514 27.0518 28.9367 26.8204 29.5537 27.2824C30.0157 27.5909 30.4781 27.9762 30.9413 28.2848C31.4033 28.67 32.1742 29.1324 31.4033 30.0577L30.7095 30.9053C29.7072 32.1383 28.8599 32.215 27.5503 31.9085C22.5399 30.5968 18.8412 27.0518 17.2222 22.0425C16.683 20.1158 17.454 18.4967 19.0721 17.4956Z" fill="white"/>
</svg>
